HIERARCHY
ROOT joint_Root
{
	OFFSET 0.0 0.0 0.0
	CHANNELS 6 Xposition Yposition Zposition Zrotation Xrotation Yrotation 
	JOINT Hips
	{
		OFFSET -0.726466 93.3139 -2.00062
		CHANNELS 6 Xposition Yposition Zposition Zrotation Xrotation Yrotation 
		JOINT Spine
		{
			OFFSET 15.7357 0.0 0.0
			CHANNELS 6 Xposition Yposition Zposition Zrotation Xrotation Yrotation 
			JOINT Chest
			{
				OFFSET 8.98455 -0.406207 0.0
				CHANNELS 6 Xposition Yposition Zposition Zrotation Xrotation Yrotation 
				JOINT Neck
				{
					OFFSET 16.3773 0.0 0.0
					CHANNELS 6 Xposition Yposition Zposition Zrotation Xrotation Yrotation 
					JOINT Head
					{
						OFFSET 6.45672 0.0 0.0
						CHANNELS 6 Xposition Yposition Zposition Zrotation Xrotation Yrotation 
						End Site
						{
							OFFSET 0.0 0.0 0.0
						}
					}
				}
				JOINT Shoulder_L
				{
					OFFSET 12.9942 -0.242716 4.98039
					CHANNELS 6 Xposition Yposition Zposition Zrotation Xrotation Yrotation 
					JOINT UpperArm_L
					{
						OFFSET 5.34809 0.0 0.0
						CHANNELS 6 Xposition Yposition Zposition Zrotation Xrotation Yrotation 
						JOINT LowerArm_L
						{
							OFFSET 24.3286 1.87007e-05 0.0
							CHANNELS 6 Xposition Yposition Zposition Zrotation Xrotation Yrotation 
							JOINT Hand_L
							{
								OFFSET 22.2916 0.0 0.0
								CHANNELS 6 Xposition Yposition Zposition Zrotation Xrotation Yrotation 
								End Site
								{
									OFFSET 0.0 0.0 0.0
								}
							}
						}
					}
				}
				JOINT Shoulder_R
				{
					OFFSET 12.9945 -0.242716 -4.98039
					CHANNELS 6 Xposition Yposition Zposition Zrotation Xrotation Yrotation 
					JOINT UpperArm_R
					{
						OFFSET -5.34813 0.0 0.0
						CHANNELS 6 Xposition Yposition Zposition Zrotation Xrotation Yrotation 
						JOINT LowerArm_R
						{
							OFFSET -24.3289 0.000322201 0.0
							CHANNELS 6 Xposition Yposition Zposition Zrotation Xrotation Yrotation 
							JOINT Hand_R
							{
								OFFSET -22.2915 -0.000108084 0.0
								CHANNELS 6 Xposition Yposition Zposition Zrotation Xrotation Yrotation 
								End Site
								{
									OFFSET 0.0 0.0 0.0
								}
							}
						}
					}
				}
			}
		}
		JOINT UpperLeg_L
		{
			OFFSET -2.19248 -6.46944 0.0
			CHANNELS 6 Xposition Yposition Zposition Zrotation Xrotation Yrotation 
			JOINT LowerLeg_L
			{
				OFFSET 39.0811 0.0 -1.23785e-05
				CHANNELS 6 Xposition Yposition Zposition Zrotation Xrotation Yrotation 
				JOINT Foot_L
				{
					OFFSET 40.9854 0.0 -1.26872e-05
					CHANNELS 6 Xposition Yposition Zposition Zrotation Xrotation Yrotation 
					JOINT Toes_L
					{
						OFFSET 11.7543 0.0 0.0
						CHANNELS 6 Xposition Yposition Zposition Zrotation Xrotation Yrotation 
						End Site
						{
							OFFSET 0.0 0.0 0.0
						}
					}
				}
			}
		}
		JOINT UpperLeg_R
		{
			OFFSET -2.19251 6.46944 0.0
			CHANNELS 6 Xposition Yposition Zposition Zrotation Xrotation Yrotation 
			JOINT LowerLeg_R
			{
				OFFSET -39.0811 -0.00228153 -0.0401928
				CHANNELS 6 Xposition Yposition Zposition Zrotation Xrotation Yrotation 
				JOINT Foot_R
				{
					OFFSET -40.9854 0.0 0.0
					CHANNELS 6 Xposition Yposition Zposition Zrotation Xrotation Yrotation 
					JOINT Toes_R
					{
						OFFSET -11.7543 0.0 0.0
						CHANNELS 6 Xposition Yposition Zposition Zrotation Xrotation Yrotation 
						End Site
						{
							OFFSET 0.0 0.0 0.0
						}
					}
				}
			}
		}
	}
}
MOTION
Frames:	4
Frame Time:	0.0333333
0.000000 0.000000 0.000000 0.000000 0.000000 -0.000000 -2.323000 92.172900 -1.051840 88.978800 4.014900 6.408480 15.735700 0.000005 -0.000001 76.686500 85.252900 -75.010400 8.984550 -0.406207 -0.000000 1.509840 -2.276660 3.379720 16.377300 -0.000001 -0.000001 5.422750 -2.215840 -3.088390 6.456720 -0.000001 -0.000000 10.548200 -2.581790 -2.135300 12.994200 -0.242716 4.980390 -87.877900 -6.520320 -71.928100 5.348090 -0.000007 -0.000001 -83.009000 -22.576000 -89.357500 24.328600 0.000019 0.000005 2.469290 0.138678 -86.787800 22.291600 -0.000001 0.000005 17.789900 5.577820 -10.095900 12.994500 -0.242716 -4.980390 88.723000 4.203940 -73.086500 -5.348130 -0.000001 -0.000004 -65.261200 38.708900 -14.748500 -24.328900 0.000322 -0.000009 2.159410 8.461350 -14.380000 -22.291500 -0.000108 -0.000004 9.453510 5.393810 -2.737260 -2.192480 -6.469440 -0.000000 -174.782000 -6.443730 -1.465900 39.081100 -0.000007 -0.000012 -0.123005 0.287424 23.168900 40.985400 -0.000006 -0.000013 -0.583013 7.507590 -65.568900 11.754300 -0.000000 0.000003 -0.000045 -0.000512 -16.597500 -2.192510 6.469440 -0.000001 179.158000 17.217100 -178.009000 -39.081100 -0.002282 -0.040193 -0.090624 0.251186 20.506100 -40.985400 0.000008 0.000006 2.928800 6.566600 -66.507600 -11.754300 -0.000006 -0.000006 -0.008780 -0.094287 -20.413400
0.000000 0.000000 0.000000 0.000000 0.000000 -0.000000 -2.353900 92.173400 -1.073470 88.983300 3.937550 6.406640 15.735700 0.000005 -0.000001 76.848100 85.232400 -75.195000 8.984550 -0.406207 -0.000000 1.555150 -2.258000 3.334260 16.377300 -0.000001 -0.000001 5.457100 -2.276190 -3.089020 6.456720 -0.000001 -0.000000 10.607500 -2.722080 -2.225230 12.994200 -0.242716 4.980390 -87.873900 -6.508420 -71.865400 5.348090 -0.000007 -0.000001 -82.919900 -22.649800 -89.208900 24.328600 0.000019 0.000005 2.446600 0.143155 -86.653700 22.291600 -0.000001 0.000005 17.729000 5.576770 -10.040000 12.994500 -0.242716 -4.980390 88.727300 4.189140 -73.083800 -5.348130 -0.000001 -0.000004 -65.108900 38.808800 -14.897300 -24.328900 0.000322 -0.000009 2.140160 8.347740 -14.441600 -22.291500 -0.000108 -0.000004 9.561480 5.392490 -2.694880 -2.192480 -6.469440 -0.000000 -174.767000 -6.440170 -1.454140 39.081100 -0.000007 -0.000012 -0.122868 0.287366 23.150100 40.985400 -0.000006 -0.000013 -0.615707 7.465170 -65.557400 11.754300 -0.000000 0.000003 -0.000043 -0.000493 -16.596700 -2.192510 6.469440 -0.000001 179.182000 17.191100 -178.049000 -39.081100 -0.002282 -0.040193 -0.091329 0.252771 20.528400 -40.985400 0.000008 0.000006 2.962790 6.600160 -66.499200 -11.754300 -0.000006 -0.000006 -0.008769 -0.094199 -20.409800
0.000000 0.000000 0.000000 0.000000 0.000000 -0.000000 -2.377820 92.179500 -1.108700 88.963800 3.810770 6.420790 15.735700 0.000005 -0.000001 77.106700 85.197500 -75.473600 8.984550 -0.406207 -0.000000 1.631920 -2.229420 3.295170 16.377300 -0.000001 -0.000001 5.571820 -2.304840 -3.186260 6.456720 -0.000001 -0.000000 10.564900 -2.794930 -2.168200 12.994200 -0.242716 4.980390 -87.865800 -6.489310 -71.750400 5.348090 -0.000007 -0.000001 -82.538800 -22.812900 -88.535000 24.328600 0.000019 0.000005 2.171000 0.118442 -86.880300 22.291600 -0.000001 0.000005 17.902200 5.578640 -10.139400 12.994500 -0.242716 -4.980390 88.717100 4.222840 -73.083700 -5.348130 -0.000001 -0.000004 -65.012000 38.814400 -15.048100 -24.328900 0.000322 -0.000009 2.149440 8.337350 -14.518800 -22.291500 -0.000108 -0.000004 9.512450 5.393930 -2.741320 -2.192480 -6.469440 -0.000000 -174.726000 -6.525060 -1.441290 39.081100 -0.000007 -0.000012 -0.122848 0.287608 23.129300 40.985400 -0.000006 -0.000013 -0.644997 7.406890 -65.523600 11.754300 -0.000000 0.000003 -0.000044 -0.000511 -16.597400 -2.192510 6.469440 -0.000001 179.228000 17.120100 -178.048000 -39.081100 -0.002282 -0.040193 -0.090005 0.249752 20.489300 -40.985400 0.000008 0.000006 2.994130 6.658670 -66.457200 -11.754300 -0.000006 -0.000006 -0.008832 -0.094690 -20.429800
0.000000 0.000000 0.000000 0.000000 0.000000 -0.000000 -2.389580 92.184800 -1.142140 88.977500 3.663770 6.367310 15.735700 0.000005 -0.000001 77.503900 85.172800 -75.885900 8.984550 -0.406207 -0.000000 1.693720 -2.173480 3.265490 16.377300 -0.000001 -0.000001 5.559650 -2.275900 -3.248610 6.456720 -0.000001 -0.000000 10.523800 -2.841580 -2.243900 12.994200 -0.242716 4.980390 -87.881400 -6.419230 -71.691200 5.348090 -0.000007 -0.000001 -81.682800 -23.191900 -86.868800 24.328600 0.000019 0.000005 1.664590 0.060947 -87.907900 22.291600 -0.000001 0.000005 18.032000 5.577590 -10.083200 12.994500 -0.242716 -4.980390 88.692700 4.282630 -73.007700 -5.348130 -0.000001 -0.000004 -64.855200 38.840500 -15.283200 -24.328900 0.000322 -0.000009 2.164620 8.306640 -14.668400 -22.291500 -0.000108 -0.000004 9.466030 5.393890 -2.739880 -2.192480 -6.469440 -0.000000 -174.718000 -6.690010 -1.473670 39.081100 -0.000007 -0.000012 -0.123696 0.290181 23.087300 40.985400 -0.000006 -0.000013 -0.654424 7.417780 -65.486700 11.754300 -0.000000 0.000003 -0.000039 -0.000452 -16.595200 -2.192510 6.469440 -0.000001 179.257000 17.046900 -178.150000 -39.081100 -0.002282 -0.040193 -0.088704 0.246121 20.500700 -40.985400 0.000008 0.000006 3.024930 6.718690 -66.428800 -11.754300 -0.000006 -0.000006 -0.008816 -0.094569 -20.424900
